<svg width="24" height="24" viewBox="0 0 24 24" fill="none" xmlns="http://www.w3.org/2000/svg">
<path d="M16.5312 9.71875C16.5312 7.1582 15.1387 4.82227 12.9375 3.51953C10.6914 2.2168 7.95117 2.2168 5.75 3.51953C3.50391 4.82227 2.15625 7.1582 2.15625 9.71875C2.15625 12.3242 3.50391 14.6602 5.75 15.9629C7.95117 17.2656 10.6914 17.2656 12.9375 15.9629C15.1387 14.6602 16.5312 12.3242 16.5312 9.71875ZM15.1387 17.0859C13.5215 18.3438 11.5 19.0625 9.34375 19.0625C4.17773 19.0625 0 14.8848 0 9.71875C0 4.59766 4.17773 0.375 9.34375 0.375C14.4648 0.375 18.6875 4.59766 18.6875 9.71875C18.6875 11.9199 17.9238 13.9414 16.666 15.5586L22.6855 21.5332C23.0898 21.9824 23.0898 22.6562 22.6855 23.0605C22.2363 23.5098 21.5625 23.5098 21.1582 23.0605L15.1387 17.0859Z" fill="white"/>
</svg>
