
<svg width="29" height="25" viewBox="0 0 29 25" fill="none" xmlns="http://www.w3.org/2000/svg">
<path d="M6.48483 1.772C9.69881 4.19574 13.1558 9.1101 14.425 11.7474C15.6944 9.11029 19.1512 4.1957 22.3652 1.772C24.6843 0.0231155 28.4417 -1.33007 28.4417 2.97584C28.4417 3.83578 27.9509 10.1998 27.663 11.233C26.6624 14.8251 23.016 15.7412 19.7726 15.1867C25.4421 16.156 26.8844 19.3666 23.7696 22.5773C17.8541 28.6749 15.2673 21.0474 14.6042 19.0929C14.4826 18.7346 14.4258 18.567 14.425 18.7095C14.4241 18.567 14.3673 18.7346 14.2457 19.0929C13.5829 21.0474 10.9962 28.6751 5.0803 22.5773C1.9655 19.3666 3.40772 16.1558 9.07732 15.1867C5.83377 15.7412 2.1874 14.8251 1.1869 11.233C0.899018 10.1997 0.408203 3.83569 0.408203 2.97584C0.408203 -1.33007 4.16573 0.0231155 6.48467 1.772H6.48483Z" fill="white" fill-opacity="0.7"/>
</svg>
