<svg width="154" height="32" viewBox="0 0 502 85" fill="none" xmlns="http://www.w3.org/2000/svg">
  <path d="M27.9327 67.0669C23.7243 67.0669 19.9307 66.4149 16.5521 65.1109C13.1734 63.7476 10.2986 61.7619 7.92764 59.1538C5.55666 56.4865 3.71916 53.1967 2.41512 49.2846C1.11109 45.3132 0.459067 40.6898 0.459067 35.4144C0.459067 30.1983 1.11109 25.5749 2.41512 21.5442C3.71916 17.4543 5.55666 14.046 7.92764 11.3194C10.2986 8.53349 13.1734 6.42924 16.5521 5.00666C19.9307 3.58408 23.7243 2.87278 27.9327 2.87278C33.6824 2.87278 38.4243 4.05827 42.1586 6.42925C45.8929 8.74095 48.8862 12.416 51.1387 17.4543L39.4912 23.5003C38.6614 20.8922 37.3574 18.8176 35.5791 17.2765C33.8602 15.676 31.3114 14.8758 27.9327 14.8758C23.9614 14.8758 20.7605 16.1799 18.3303 18.788C15.9593 21.3368 14.7738 25.071 14.7738 29.9908V39.9489C14.7738 44.8687 15.9593 48.6326 18.3303 51.2407C20.7605 53.7895 23.9614 55.0639 27.9327 55.0639C31.2521 55.0639 33.8898 54.1748 35.8459 52.3965C37.8612 50.559 39.3431 48.3659 40.2915 45.8171L51.3165 52.2187C49.0048 56.9607 45.9522 60.6357 42.1586 63.2437C38.4243 65.7925 33.6824 67.0669 27.9327 67.0669ZM60.0625 0.205439H73.2214V27.2346H73.7548C74.5847 24.8043 76.0369 22.7001 78.1115 20.9218C80.1861 19.1436 83.0609 18.2545 86.7359 18.2545C91.5372 18.2545 95.1529 19.8549 97.5831 23.0557C100.073 26.2565 101.317 30.8207 101.317 36.7481V66H88.1585V37.815C88.1585 34.792 87.6843 32.5692 86.7359 31.1467C85.7875 29.6648 84.0982 28.9239 81.668 28.9239C80.601 28.9239 79.5637 29.0721 78.5561 29.3684C77.5484 29.6055 76.6297 30.0205 75.7998 30.6132C75.0292 31.2059 74.4069 31.9469 73.9327 32.836C73.4585 33.6658 73.2214 34.6439 73.2214 35.7701V66H60.0625V0.205439ZM147.525 66C145.154 66 143.168 65.2591 141.568 63.7772C140.027 62.2954 139.049 60.3097 138.634 57.8201H138.1C137.389 60.8431 135.818 63.1548 133.388 64.7552C130.958 66.2964 127.964 67.0669 124.408 67.0669C119.725 67.0669 116.139 65.8222 113.65 63.3327C111.16 60.8431 109.915 57.5534 109.915 53.4635C109.915 48.5437 111.694 44.8983 115.25 42.5273C118.866 40.0971 123.756 38.882 129.921 38.882H137.3V35.9479C137.3 33.6955 136.707 31.9172 135.522 30.6132C134.336 29.2499 132.351 28.5682 129.565 28.5682C126.957 28.5682 124.882 29.1313 123.341 30.2575C121.8 31.3838 120.526 32.6582 119.518 34.0807L111.694 27.1456C113.59 24.3597 115.961 22.1962 118.807 20.6551C121.711 19.0547 125.623 18.2545 130.543 18.2545C137.182 18.2545 142.161 19.7067 145.48 22.6112C148.799 25.5156 150.459 29.7537 150.459 35.3255V55.7752H154.816V66H147.525ZM129.298 57.909C131.491 57.909 133.358 57.4349 134.9 56.4865C136.5 55.5381 137.3 53.9969 137.3 51.8631V46.3505H130.899C125.742 46.3505 123.163 48.0991 123.163 51.5963V52.93C123.163 54.649 123.697 55.9234 124.764 56.7532C125.831 57.5238 127.342 57.909 129.298 57.909ZM163.648 66V19.3214H176.807V27.2346H177.34C178.17 24.8043 179.622 22.7001 181.697 20.9218C183.772 19.1436 186.646 18.2545 190.321 18.2545C195.123 18.2545 198.738 19.8549 201.169 23.0557C203.658 26.2565 204.903 30.8207 204.903 36.7481V66H191.744V37.815C191.744 34.792 191.27 32.5692 190.321 31.1467C189.373 29.6648 187.684 28.9239 185.253 28.9239C184.186 28.9239 183.149 29.0721 182.142 29.3684C181.134 29.6055 180.215 30.0205 179.385 30.6132C178.615 31.2059 177.992 31.9469 177.518 32.836C177.044 33.6658 176.807 34.6439 176.807 35.7701V66H163.648ZM216.613 66V19.3214H229.772V27.2346H230.305C231.135 24.8043 232.587 22.7001 234.662 20.9218C236.736 19.1436 239.611 18.2545 243.286 18.2545C248.087 18.2545 251.703 19.8549 254.133 23.0557C256.623 26.2565 257.868 30.8207 257.868 36.7481V66H244.709V37.815C244.709 34.792 244.235 32.5692 243.286 31.1467C242.338 29.6648 240.649 28.9239 238.218 28.9239C237.151 28.9239 236.114 29.0721 235.106 29.3684C234.099 29.6055 233.18 30.0205 232.35 30.6132C231.58 31.2059 230.957 31.9469 230.483 32.836C230.009 33.6658 229.772 34.6439 229.772 35.7701V66H216.613ZM289.049 67.0669C285.493 67.0669 282.322 66.5038 279.536 65.3776C276.75 64.1921 274.379 62.5621 272.423 60.4875C270.526 58.3536 269.074 55.7752 268.066 52.7522C267.118 49.7292 266.644 46.3505 266.644 42.6163C266.644 38.9412 267.118 35.6219 268.066 32.6582C269.015 29.6352 270.408 27.0567 272.245 24.9229C274.142 22.789 276.454 21.1589 279.18 20.0327C281.907 18.8472 285.019 18.2545 288.516 18.2545C292.369 18.2545 295.658 18.9065 298.385 20.2105C301.171 21.5146 303.423 23.2632 305.142 25.4563C306.921 27.6495 308.195 30.1983 308.966 33.1027C309.795 35.9479 310.21 38.9412 310.21 42.0828V45.9949H280.247V46.7062C280.247 49.7885 281.077 52.2483 282.737 54.0858C284.396 55.8641 287.004 56.7532 290.561 56.7532C293.287 56.7532 295.51 56.2197 297.229 55.1528C298.948 54.0266 300.549 52.6929 302.03 51.1518L308.61 59.3316C306.535 61.7619 303.809 63.6587 300.43 65.022C297.111 66.3853 293.317 67.0669 289.049 67.0669ZM288.783 27.9458C286.115 27.9458 284.011 28.835 282.47 30.6132C280.988 32.3322 280.247 34.6439 280.247 37.5483V38.2596H296.607V37.4594C296.607 34.6142 295.955 32.3322 294.651 30.6132C293.406 28.835 291.45 27.9458 288.783 27.9458ZM332.574 66C328.069 66 324.749 64.9034 322.616 62.7103C320.541 60.5171 319.504 57.3459 319.504 53.1967V0.205439H332.663V55.7752H338.531V66H332.574ZM354.935 66.978C352.268 66.978 350.282 66.326 348.978 65.022C347.733 63.6587 347.111 61.9397 347.111 59.8651V58.0869C347.111 56.0123 347.733 54.3229 348.978 53.0189C350.282 51.6556 352.268 50.9739 354.935 50.9739C357.602 50.9739 359.558 51.6556 360.803 53.0189C362.107 54.3229 362.759 56.0123 362.759 58.0869V59.8651C362.759 61.9397 362.107 63.6587 360.803 65.022C359.558 66.326 357.602 66.978 354.935 66.978ZM392.449 67.0669C389.011 67.0669 385.928 66.5038 383.202 65.3776C380.535 64.2514 378.252 62.6214 376.356 60.4875C374.518 58.3536 373.096 55.7752 372.088 52.7522C371.08 49.7292 370.576 46.3505 370.576 42.6163C370.576 38.882 371.08 35.5033 372.088 32.4803C373.096 29.4573 374.518 26.9085 376.356 24.8339C378.252 22.7001 380.535 21.07 383.202 19.9438C385.928 18.8176 389.011 18.2545 392.449 18.2545C395.887 18.2545 398.939 18.8176 401.607 19.9438C404.333 21.07 406.615 22.7001 408.453 24.8339C410.35 26.9085 411.802 29.4573 412.809 32.4803C413.817 35.5033 414.321 38.882 414.321 42.6163C414.321 46.3505 413.817 49.7292 412.809 52.7522C411.802 55.7752 410.35 58.3536 408.453 60.4875C406.615 62.6214 404.333 64.2514 401.607 65.3776C398.939 66.5038 395.887 67.0669 392.449 67.0669ZM392.449 56.6643C395.057 56.6643 397.072 55.8641 398.495 54.2637C399.917 52.6633 400.629 50.3812 400.629 47.4175V37.9039C400.629 34.9402 399.917 32.6582 398.495 31.0578C397.072 29.4573 395.057 28.6571 392.449 28.6571C389.841 28.6571 387.825 29.4573 386.403 31.0578C384.98 32.6582 384.269 34.9402 384.269 37.9039V47.4175C384.269 50.3812 384.98 52.6633 386.403 54.2637C387.825 55.8641 389.841 56.6643 392.449 56.6643ZM423.697 66V19.3214H436.856V29.4573H437.3C437.537 28.1533 437.952 26.9085 438.545 25.7231C439.138 24.4783 439.908 23.3817 440.857 22.4333C441.865 21.4849 443.05 20.744 444.413 20.2105C445.777 19.6178 447.377 19.3214 449.215 19.3214H451.526V31.5912H448.237C444.384 31.5912 441.509 32.0951 439.612 33.1027C437.775 34.1104 436.856 35.9775 436.856 38.7041V66H423.697ZM501.639 69.3786C501.639 71.8682 501.194 74.0613 500.305 75.9581C499.475 77.8549 498.083 79.4553 496.126 80.7593C494.17 82.1226 491.562 83.1303 488.302 83.7823C485.101 84.4936 481.13 84.8493 476.388 84.8493C472.357 84.8493 468.92 84.5825 466.074 84.049C463.288 83.5749 461.006 82.8636 459.228 81.9152C457.509 81.0261 456.235 79.8998 455.405 78.5365C454.634 77.2325 454.249 75.721 454.249 74.002C454.249 71.394 455.02 69.349 456.561 67.8671C458.102 66.3853 460.236 65.4665 462.962 65.1109V64.1329C460.71 63.7179 459.021 62.7695 457.895 61.2877C456.768 59.7466 456.205 57.9683 456.205 55.953C456.205 54.7082 456.442 53.6413 456.916 52.7522C457.45 51.8038 458.102 51.0036 458.873 50.3516C459.702 49.6403 460.651 49.0772 461.718 48.6622C462.785 48.2473 463.852 47.9213 464.919 47.6842V47.3286C462.073 46.0245 459.969 44.2463 458.606 41.9939C457.243 39.6822 456.561 37.0148 456.561 33.9918C456.561 29.2499 458.191 25.4563 461.451 22.6112C464.77 19.7067 469.809 18.2545 476.566 18.2545C479.648 18.2545 482.286 18.5509 484.479 19.1436V17.3654C484.479 14.8758 485.072 13.0976 486.257 12.0307C487.502 10.9045 489.251 10.3414 491.503 10.3414H498.883V20.1216H488.569V20.6551C491.296 21.9591 493.311 23.767 494.615 26.0787C495.919 28.3311 496.571 30.9688 496.571 33.9918C496.571 38.6745 494.911 42.4384 491.592 45.2836C488.332 48.0695 483.323 49.4624 476.566 49.4624C473.543 49.4624 470.787 49.1364 468.297 48.4844C466.934 49.3735 466.252 50.6183 466.252 52.2187C466.252 53.3449 466.667 54.234 467.497 54.8861C468.386 55.4788 469.838 55.7752 471.854 55.7752H485.368C491.059 55.7752 495.178 56.9607 497.727 59.3316C500.335 61.7026 501.639 65.0516 501.639 69.3786ZM489.28 71.1569C489.28 69.7936 488.747 68.7563 487.68 68.045C486.613 67.3337 484.746 66.978 482.078 66.978H466.074C465.482 67.5708 465.037 68.2228 464.741 68.9341C464.504 69.7046 464.385 70.4456 464.385 71.1569C464.385 72.8758 465.126 74.1206 466.608 74.8912C468.09 75.721 470.609 76.1359 474.165 76.1359H479.5C483.056 76.1359 485.576 75.721 487.058 74.8912C488.539 74.1206 489.28 72.8758 489.28 71.1569ZM476.566 40.838C479.174 40.838 481.1 40.3046 482.345 39.2376C483.649 38.1114 484.301 36.511 484.301 34.4364V33.3695C484.301 31.2949 483.649 29.7241 482.345 28.6571C481.1 27.5309 479.174 26.9678 476.566 26.9678C473.958 26.9678 472.002 27.5309 470.698 28.6571C469.453 29.7241 468.831 31.2949 468.831 33.3695V34.4364C468.831 36.511 469.453 38.1114 470.698 39.2376C472.002 40.3046 473.958 40.838 476.566 40.838Z" fill="url(#paint0_linear_191_1355)"/>
    <defs>
      <linearGradient id="paint0_linear_191_1355" x1="248.682" y1="-21" x2="248.682" y2="86" gradientUnits="userSpaceOnUse">
      <stop offset="0.505" stop-color="#F8F8FF"/>
      <stop offset="1" stop-color="#BABAF8"/>
      </linearGradient>
  </defs>
</svg>