
<svg width="29" height="24" viewBox="0 0 29 24" fill="none" xmlns="http://www.w3.org/2000/svg">
<path d="M2.15625 4.10938V12.0156C2.15625 12.6445 2.60547 13.0938 3.23438 13.0938H5.39062C5.97461 13.0938 6.46875 13.5879 6.46875 14.1719V15.0703L9.07422 13.2734C9.25391 13.1836 9.47852 13.0938 9.70312 13.0938H15.4531C16.0371 13.0938 16.5312 12.6445 16.5312 12.0156V4.10938C16.5312 3.52539 16.0371 3.03125 15.4531 3.03125H3.23438C2.60547 3.03125 2.15625 3.52539 2.15625 4.10938ZM3.23438 0.875H15.4531C17.2051 0.875 18.6875 2.35742 18.6875 4.10938V12.0156C18.6875 13.8125 17.2051 15.25 15.4531 15.25H10.0176L5.97461 17.9453C5.66016 18.1699 5.21094 18.2148 4.85156 18.0352C4.49219 17.8105 4.3125 17.4512 4.3125 17.0469V15.25H3.23438C1.4375 15.25 0 13.8125 0 12.0156V4.10938C0 2.35742 1.4375 0.875 3.23438 0.875ZM11.5 17.7656V16.6875H13.6562V17.7656C13.6562 18.3945 14.1055 18.8438 14.7344 18.8438H19.0469C19.2266 18.8438 19.4512 18.9336 19.6309 19.0234L22.2812 20.8203V19.9219C22.2812 19.3379 22.7305 18.8438 23.3594 18.8438H25.5156C26.0996 18.8438 26.5938 18.3945 26.5938 17.7656V9.85938C26.5938 9.27539 26.0996 8.78125 25.5156 8.78125H20.125V6.625H25.5156C27.2676 6.625 28.75 8.10742 28.75 9.85938V17.7656C28.75 19.5625 27.2676 21 25.5156 21H24.4375V22.7969C24.4375 23.2012 24.2129 23.5605 23.8535 23.7852C23.4941 23.9648 23.0898 23.9199 22.7305 23.6953L18.6875 21H14.7344C12.9375 21 11.5 19.5625 11.5 17.7656Z" fill="white" fill-opacity="0.7"/>
</svg>
