
<svg width="27" height="26" viewBox="0 0 27 26" fill="none" xmlns="http://www.w3.org/2000/svg">
<path d="M13.5 22.7812C13.8418 22.7812 14.8184 22.4395 15.7949 20.4375C16.2344 19.5586 16.625 18.5332 16.8691 17.3125H10.082C10.375 18.5332 10.7168 19.5586 11.1562 20.4375C12.1816 22.4395 13.1094 22.7812 13.5 22.7812ZM9.69141 14.9688H17.2598C17.3574 14.2363 17.4062 13.4551 17.4062 12.625C17.4062 11.8438 17.3574 11.0625 17.2598 10.2812H9.69141C9.59375 11.0625 9.59375 11.8438 9.59375 12.625C9.59375 13.4551 9.59375 14.2363 9.69141 14.9688ZM10.082 7.9375H16.8691C16.625 6.76562 16.2344 5.74023 15.7949 4.86133C14.8184 2.85938 13.8418 2.46875 13.5 2.46875C13.1094 2.46875 12.1816 2.85938 11.1562 4.86133C10.7168 5.74023 10.375 6.76562 10.082 7.9375ZM19.6035 10.2812C19.7012 11.0625 19.7012 11.8438 19.7012 12.625C19.7012 13.4551 19.7012 14.2363 19.6035 14.9688H23.3633C23.5586 14.2363 23.6562 13.4551 23.6562 12.625C23.6562 11.8438 23.5586 11.0625 23.3633 10.2812H19.6035ZM22.4844 7.9375C21.459 5.93555 19.75 4.32422 17.6992 3.39648C18.3828 4.66602 18.9199 6.22852 19.2617 7.9375H22.4844ZM7.68945 7.9375C8.03125 6.22852 8.56836 4.66602 9.25195 3.39648C7.20117 4.32422 5.49219 5.93555 4.4668 7.9375H7.68945ZM3.58789 10.2812C3.44141 11.0625 3.34375 11.8438 3.34375 12.625C3.34375 13.4551 3.39258 14.2363 3.58789 14.9688H7.34766C7.25 14.2363 7.25 13.4551 7.25 12.625C7.25 11.8438 7.25 11.0625 7.34766 10.2812H3.58789ZM17.6992 21.9023C19.75 20.9746 21.459 19.3633 22.4844 17.3125H19.2617C18.9199 19.0703 18.3828 20.6328 17.6992 21.9023ZM9.25195 21.9023C8.56836 20.6328 8.03125 19.0703 7.68945 17.3125H4.4668C5.49219 19.3633 7.20117 20.9746 9.25195 21.9023ZM13.5 25.125C9.00781 25.125 4.90625 22.7812 2.66016 18.875C0.414062 15.0176 0.414062 10.2812 2.66016 6.375C4.90625 2.51758 9.00781 0.125 13.5 0.125C17.9434 0.125 22.0449 2.51758 24.291 6.375C26.5371 10.2812 26.5371 15.0176 24.291 18.875C22.0449 22.7812 17.9434 25.125 13.5 25.125Z" fill="white" fill-opacity="0.7"/>
</svg>
